<svg width="94" height="20" viewBox="0 0 94 20" fill="none" xmlns="http://www.w3.org/2000/svg">
<g clip-path="url(#clip0)">
<path d="M21.9878 0.734608C22.5731 -0.240451 22.167 0.107962 21.207 1.42266C21.6519 0.955186 21.2271 3.56579 20.6255 6.17514C20.0665 8.60276 19.3546 11.0304 19.0514 10.9815C19.4273 12.1095 18.1866 12.1095 17.491 10.9815C17.7166 11.0304 17.2667 8.60026 16.7152 6.17514C16.1224 3.56579 15.4156 0.955186 15.2902 1.42266C15.4243 0.110469 15.0183 -0.240451 14.5107 0.734608C14.6636 -0.240451 11.6206 -0.240451 11.7534 0.734608C11.2621 -0.240451 10.8561 0.107962 10.9739 1.42266C10.8598 0.955186 10.1655 3.55326 9.58399 6.16135C9.04383 8.58271 8.60141 11.0028 8.81698 10.9552C8.14271 12.0831 6.9007 12.0831 7.27919 10.9552C6.98592 11.0028 6.26904 8.58271 5.69879 6.16135C5.08593 3.55827 4.64227 0.955186 5.07215 1.42266C4.13093 0.110469 3.72486 -0.240451 4.29135 0.734608C3.37018 -0.240451 0.453773 -0.240451 1.65944 0.734608C-0.174126 -0.240451 -0.578939 0.403739 0.907464 1.95406C0.269539 1.53045 1.25087 5.9132 2.49162 10.2947C3.73238 14.6762 5.24259 19.0878 5.63362 18.6328C4.95434 19.9225 5.35915 20.2433 6.3856 19.2683C5.68375 20.2433 9.03129 20.2433 9.4148 19.2683C9.4148 20.2433 9.79078 19.8949 10.1943 18.5802C10.0377 19.0514 10.5904 16.6263 11.1669 14.2012C11.6945 11.9766 12.2435 9.75203 12.2823 9.76331C12.4302 8.7143 13.6722 8.7143 13.8427 9.76331C13.8828 9.75203 14.4204 11.9766 14.9368 14.2012C15.5008 16.6263 16.0397 19.0514 15.8843 18.5802C16.2841 19.8924 16.6902 20.2433 16.6651 19.2683C17.0411 20.2433 20.3673 20.2433 19.673 19.2683C20.6994 20.2433 21.1042 19.9225 20.425 18.6328C20.8135 19.0878 22.3312 14.6912 23.5883 10.2947C24.8453 5.89816 25.8354 1.53045 25.1975 1.95406C26.6789 0.403739 26.2728 -0.240451 24.4455 0.734608C25.0446 0.247079 24.6661 0.00268555 24.0206 0.00268555C23.3752 0.00268555 22.4603 0.253345 21.9903 0.734608" fill="#0060FF"/>
<path d="M28.8566 0.73464C27.785 -0.240419 27.3789 0.233324 28.0545 1.66207C27.7161 1.22718 27.5469 5.6137 27.5469 10.0002C27.5469 14.3867 27.7161 18.7795 28.0545 18.3409C27.3789 19.7746 27.785 20.2421 28.8566 19.267C28.2663 20.2421 40.6663 20.2421 40.076 19.267C41.1488 20.2421 41.5536 19.7746 40.8794 18.3409C41.5536 19.2182 41.5536 17.169 40.8794 16.4872C41.5536 16.6126 41.1488 16.1451 40.076 15.5598C40.6663 16.1451 32.7806 16.1451 32.941 15.5598C32.2981 16.1451 31.892 15.6776 32.1377 14.6336C31.887 15.1212 31.887 13.0432 32.1377 12.7537C31.887 12.488 32.2981 12.0193 32.941 11.8275C32.7806 12.0193 39.4744 12.0193 38.9982 11.8275C39.957 12.0193 40.363 11.5518 39.8015 10.9001C40.081 10.9477 40.2214 10.4602 40.2226 9.97389C40.2239 9.48762 40.0823 8.99633 39.8015 9.04646C40.363 8.39099 39.957 7.9185 38.9982 8.12028C39.4744 7.92226 32.7806 7.92226 32.941 8.12028C32.2981 7.92226 31.892 7.45478 32.1377 7.19409C31.887 6.89957 31.887 4.87927 32.1377 5.3668C31.887 4.32406 32.2981 3.85533 32.941 4.44062C32.7806 3.85533 40.3881 3.85533 39.8241 4.44062C40.8693 3.85533 41.2754 3.3866 40.6262 3.51318C41.2754 2.83139 41.2754 0.782265 40.6262 1.66082C41.2754 0.225804 40.8693 -0.241674 39.8241 0.733386C40.1061 0.245856 37.216 0.00146484 34.3309 0.00146484C31.4459 0.00146484 28.5658 0.252122 28.8566 0.733386" fill="#0060FF"/>
<path d="M52.6018 11.726C53.3024 11.5105 53.7085 11.9767 53.4052 12.6535C53.5568 12.5946 53.632 13.1861 53.632 13.7814C53.632 14.3767 53.5568 14.9658 53.4052 14.9094C53.7085 15.5837 53.3024 16.0524 52.6018 15.8356C52.8199 16.0524 50.0564 16.0524 50.0952 15.8356C48.3757 16.0524 47.338 15.2089 47.64 13.7438C47.3367 12.3652 48.3757 11.5167 50.0952 11.7323C50.0501 11.5167 52.8136 11.5167 52.6018 11.7323V11.726ZM52.6156 4.14489C53.2886 3.94436 53.6947 4.41184 53.4177 5.07107C53.5568 5.01968 53.6258 5.53478 53.6258 6.05114C53.6258 6.56749 53.5568 7.08134 53.4177 7.02996C53.6947 7.68919 53.2924 8.15792 52.6156 7.95739C52.8074 8.15792 50.0426 8.15792 50.109 7.95739C48.7191 8.15792 47.8819 7.33827 48.1589 6.02357C47.8819 4.70511 48.7191 3.94436 50.109 4.14363C50.0376 3.94311 52.8023 3.94311 52.6156 4.14363V4.14489ZM49.8671 0.739701C45.8253 -0.235358 43.2899 1.75361 43.9704 5.37687C43.2899 6.67402 44.0757 8.16669 45.898 9.0841C45.5972 9.07407 45.5721 9.63053 45.8754 9.74584C43.6959 10.5016 42.6808 12.3138 43.4202 14.1361C42.6808 18.0551 45.319 20.2484 49.5927 19.2746C49.5024 20.2497 57.3129 20.2497 56.6587 19.2746C57.7942 20.2497 58.2003 19.7822 57.4621 18.3484C57.8305 18.7871 58.016 14.3968 58.016 10.0078C58.016 5.61875 57.8305 1.23475 57.4621 1.66839C58.2003 0.233373 57.7942 -0.234105 56.6587 0.740954C56.9858 0.253424 55.2726 0.0090332 53.4854 0.0090332C51.6982 0.0090332 49.8371 0.259691 49.8671 0.740954" fill="#0060FF"/>
<path d="M72.8251 0.740694C72.7749 -0.246898 72.3689 0.221832 72.0217 1.66688C72.2009 1.20817 72.2874 3.88019 72.2824 6.55471C72.2824 9.06129 72.1896 11.5616 72.0217 11.4914C72.3689 14.4166 70.9238 16.1135 68.7857 15.542C66.6376 16.1135 65.091 14.4141 65.4369 11.4914C65.2702 11.5616 65.1863 9.05753 65.1775 6.55471C65.1775 3.88144 65.2577 1.20942 65.4369 1.66688C65.091 0.221832 64.6849 -0.246898 64.6336 0.740694C64.2037 -0.246898 61.4652 -0.246898 62.1558 0.740694C60.9827 -0.246898 60.5767 0.221832 61.3524 1.66688C60.9526 1.20817 60.7584 3.88019 60.7722 6.55471C60.7834 9.06129 60.9777 11.5616 61.3524 11.4914C60.5767 17.0498 63.7725 20.4725 68.7631 19.4862C73.7387 20.4725 76.8581 17.0498 76.0824 11.4914C76.4583 11.5616 76.6514 9.05753 76.6639 6.55471C76.6764 3.88144 76.4822 1.20942 76.0824 1.66688C76.8581 0.221832 76.4583 -0.246898 75.279 0.740694C75.6249 0.246898 75.1186 1.46416e-06 74.4731 1.46416e-06C73.8277 1.46416e-06 73.0406 0.250658 72.8251 0.740694Z" fill="#0060FF"/>
<path d="M90.3912 0.73464C90.5918 -0.240419 90.1857 0.0227713 89.6806 1.21214C90.0566 0.285962 86.8896 7.04621 86.8119 7.3282C86.5349 7.80695 85.6977 7.80695 85.4119 7.3282C85.3417 7.04621 82.0957 0.285962 82.4755 1.21214C81.9742 0.0227713 81.5643 -0.240419 81.7649 0.73464C81.3099 -0.240419 78.8259 -0.240419 79.5165 0.73464C78.0902 -0.240419 77.6841 0.550407 78.8046 2.11326C78.4136 1.6909 79.7182 4.66621 81.1194 7.64277C82.4667 10.5015 83.9067 13.3703 84.012 13.2049C83.8215 13.6009 83.8967 13.9807 84.1047 13.6561C83.8967 14.0408 83.8967 19.2194 84.1047 18.3421C83.8967 19.7759 84.3028 20.2434 84.9081 19.2683C84.7828 20.2434 87.4987 20.2434 87.3633 19.2683C87.9799 20.2434 88.3847 19.7759 88.1654 18.3421C88.3847 19.2194 88.3847 13.8929 88.1654 13.5232C88.3847 13.8052 88.4612 13.4555 88.2569 13.0733C88.3697 13.2312 89.7796 10.4038 91.0968 7.57509C92.4692 4.63237 93.7413 1.68463 93.3528 2.112C94.4732 0.520326 94.0671 -0.240421 92.6635 0.733386C93.0106 0.245856 92.5557 0.00146484 91.9579 0.00146484C91.36 0.00146484 90.6193 0.252122 90.3925 0.733386" fill="#0060FF"/>
</g>
<defs>
<clipPath id="clip0">
<rect width="93.9967" height="20" fill="white"/>
</clipPath>
</defs>
</svg>
